<mxfile host="app.diagrams.net" modified="2024-07-24T16:27:02.337Z" agent="Mozilla/5.0 (Windows NT 10.0; Win64; x64) AppleWebKit/537.36 (KHTML, like Gecko) Chrome/126.0.0.0 Safari/537.36" etag="IMMmJVr1avZNjLFBbUct" version="24.7.1" type="device">
  <diagram id="C5RBs43oDa-KdzZeNtuy" name="Page-1">
    <mxGraphModel dx="1434" dy="746" grid="1" gridSize="10" guides="1" tooltips="1" connect="1" arrows="1" fold="1" page="1" pageScale="1" pageWidth="827" pageHeight="1169" math="0" shadow="0">
      <root>
        <mxCell id="WIyWlLk6GJQsqaUBKTNV-0" />
        <mxCell id="WIyWlLk6GJQsqaUBKTNV-1" parent="WIyWlLk6GJQsqaUBKTNV-0" />
        <mxCell id="bi7nDaM9KjCF1Ovzvnjr-1" value="Variable" style="swimlane;fontStyle=1;align=center;verticalAlign=top;childLayout=stackLayout;horizontal=1;startSize=26;horizontalStack=0;resizeParent=1;resizeParentMax=0;resizeLast=0;collapsible=1;marginBottom=0;whiteSpace=wrap;html=1;" parent="WIyWlLk6GJQsqaUBKTNV-1" vertex="1">
          <mxGeometry x="72" y="192" width="160" height="112" as="geometry" />
        </mxCell>
        <mxCell id="bi7nDaM9KjCF1Ovzvnjr-2" value="+ name_: std::string" style="text;strokeColor=none;fillColor=none;align=left;verticalAlign=top;spacingLeft=4;spacingRight=4;overflow=hidden;rotatable=0;points=[[0,0.5],[1,0.5]];portConstraint=eastwest;whiteSpace=wrap;html=1;" parent="bi7nDaM9KjCF1Ovzvnjr-1" vertex="1">
          <mxGeometry y="26" width="160" height="26" as="geometry" />
        </mxCell>
        <mxCell id="bi7nDaM9KjCF1Ovzvnjr-5" value="+ value_: Value*" style="text;strokeColor=none;fillColor=none;align=left;verticalAlign=top;spacingLeft=4;spacingRight=4;overflow=hidden;rotatable=0;points=[[0,0.5],[1,0.5]];portConstraint=eastwest;whiteSpace=wrap;html=1;" parent="bi7nDaM9KjCF1Ovzvnjr-1" vertex="1">
          <mxGeometry y="52" width="160" height="26" as="geometry" />
        </mxCell>
        <mxCell id="-LnbbRWhD2fZhIiGLRB6-0" value="+ holon_: Holon*" style="text;strokeColor=none;fillColor=none;align=left;verticalAlign=top;spacingLeft=4;spacingRight=4;overflow=hidden;rotatable=0;points=[[0,0.5],[1,0.5]];portConstraint=eastwest;whiteSpace=wrap;html=1;" parent="bi7nDaM9KjCF1Ovzvnjr-1" vertex="1">
          <mxGeometry y="78" width="160" height="26" as="geometry" />
        </mxCell>
        <mxCell id="bi7nDaM9KjCF1Ovzvnjr-3" value="" style="line;strokeWidth=1;fillColor=none;align=left;verticalAlign=middle;spacingTop=-1;spacingLeft=3;spacingRight=3;rotatable=0;labelPosition=right;points=[];portConstraint=eastwest;strokeColor=inherit;" parent="bi7nDaM9KjCF1Ovzvnjr-1" vertex="1">
          <mxGeometry y="104" width="160" height="8" as="geometry" />
        </mxCell>
        <mxCell id="bi7nDaM9KjCF1Ovzvnjr-6" value="Value" style="swimlane;fontStyle=1;align=center;verticalAlign=top;childLayout=stackLayout;horizontal=1;startSize=26;horizontalStack=0;resizeParent=1;resizeParentMax=0;resizeLast=0;collapsible=1;marginBottom=0;whiteSpace=wrap;html=1;" parent="WIyWlLk6GJQsqaUBKTNV-1" vertex="1">
          <mxGeometry x="520" y="192" width="160" height="34" as="geometry" />
        </mxCell>
        <mxCell id="bi7nDaM9KjCF1Ovzvnjr-8" value="" style="line;strokeWidth=1;fillColor=none;align=left;verticalAlign=middle;spacingTop=-1;spacingLeft=3;spacingRight=3;rotatable=0;labelPosition=right;points=[];portConstraint=eastwest;strokeColor=inherit;" parent="bi7nDaM9KjCF1Ovzvnjr-6" vertex="1">
          <mxGeometry y="26" width="160" height="8" as="geometry" />
        </mxCell>
        <mxCell id="bi7nDaM9KjCF1Ovzvnjr-12" value="ValueVarmap&lt;div&gt;&lt;br&gt;&lt;/div&gt;" style="swimlane;fontStyle=1;align=center;verticalAlign=top;childLayout=stackLayout;horizontal=1;startSize=26;horizontalStack=0;resizeParent=1;resizeParentMax=0;resizeLast=0;collapsible=1;marginBottom=0;whiteSpace=wrap;html=1;" parent="WIyWlLk6GJQsqaUBKTNV-1" vertex="1">
          <mxGeometry x="320" y="330" width="290" height="60" as="geometry">
            <mxRectangle x="320" y="330" width="110" height="40" as="alternateBounds" />
          </mxGeometry>
        </mxCell>
        <mxCell id="bi7nDaM9KjCF1Ovzvnjr-13" value="+ map_: std::unordered_map&amp;lt;std::string, Variable*&amp;gt;" style="text;strokeColor=none;fillColor=none;align=left;verticalAlign=top;spacingLeft=4;spacingRight=4;overflow=hidden;rotatable=0;points=[[0,0.5],[1,0.5]];portConstraint=eastwest;whiteSpace=wrap;html=1;" parent="bi7nDaM9KjCF1Ovzvnjr-12" vertex="1">
          <mxGeometry y="26" width="290" height="26" as="geometry" />
        </mxCell>
        <mxCell id="bi7nDaM9KjCF1Ovzvnjr-14" value="" style="line;strokeWidth=1;fillColor=none;align=left;verticalAlign=middle;spacingTop=-1;spacingLeft=3;spacingRight=3;rotatable=0;labelPosition=right;points=[];portConstraint=eastwest;strokeColor=inherit;" parent="bi7nDaM9KjCF1Ovzvnjr-12" vertex="1">
          <mxGeometry y="52" width="290" height="8" as="geometry" />
        </mxCell>
        <mxCell id="bi7nDaM9KjCF1Ovzvnjr-19" value="" style="endArrow=block;endSize=16;endFill=0;html=1;rounded=0;edgeStyle=elbowEdgeStyle;elbow=vertical;" parent="WIyWlLk6GJQsqaUBKTNV-1" source="bi7nDaM9KjCF1Ovzvnjr-12" target="bi7nDaM9KjCF1Ovzvnjr-6" edge="1">
          <mxGeometry width="160" relative="1" as="geometry">
            <mxPoint x="330" y="380" as="sourcePoint" />
            <mxPoint x="720" y="370" as="targetPoint" />
          </mxGeometry>
        </mxCell>
        <mxCell id="-LnbbRWhD2fZhIiGLRB6-4" value="" style="edgeStyle=orthogonalEdgeStyle;rounded=0;orthogonalLoop=1;jettySize=auto;html=1;" parent="WIyWlLk6GJQsqaUBKTNV-1" source="bi7nDaM9KjCF1Ovzvnjr-1" target="bi7nDaM9KjCF1Ovzvnjr-20" edge="1">
          <mxGeometry relative="1" as="geometry">
            <mxPoint x="100" y="330" as="targetPoint" />
            <Array as="points">
              <mxPoint x="40" y="260" />
              <mxPoint x="40" y="360" />
            </Array>
          </mxGeometry>
        </mxCell>
        <mxCell id="-LnbbRWhD2fZhIiGLRB6-5" value="0..1" style="edgeLabel;html=1;align=right;verticalAlign=top;resizable=0;points=[];spacingRight=4;" parent="-LnbbRWhD2fZhIiGLRB6-4" vertex="1" connectable="0">
          <mxGeometry x="0.8027" y="-2" relative="1" as="geometry">
            <mxPoint x="16" y="-2" as="offset" />
          </mxGeometry>
        </mxCell>
        <mxCell id="bi7nDaM9KjCF1Ovzvnjr-20" value="Holon" style="swimlane;fontStyle=1;align=center;verticalAlign=top;childLayout=stackLayout;horizontal=1;startSize=26;horizontalStack=0;resizeParent=1;resizeParentMax=0;resizeLast=0;collapsible=1;marginBottom=0;whiteSpace=wrap;html=1;" parent="WIyWlLk6GJQsqaUBKTNV-1" vertex="1">
          <mxGeometry x="72" y="343" width="160" height="34" as="geometry" />
        </mxCell>
        <mxCell id="bi7nDaM9KjCF1Ovzvnjr-22" value="" style="line;strokeWidth=1;fillColor=none;align=left;verticalAlign=middle;spacingTop=-1;spacingLeft=3;spacingRight=3;rotatable=0;labelPosition=right;points=[];portConstraint=eastwest;strokeColor=inherit;" parent="bi7nDaM9KjCF1Ovzvnjr-20" vertex="1">
          <mxGeometry y="26" width="160" height="8" as="geometry" />
        </mxCell>
        <mxCell id="bi7nDaM9KjCF1Ovzvnjr-27" value="" style="endArrow=block;endSize=16;endFill=0;html=1;rounded=0;edgeStyle=elbowEdgeStyle;elbow=vertical;" parent="WIyWlLk6GJQsqaUBKTNV-1" source="bi7nDaM9KjCF1Ovzvnjr-20" target="bi7nDaM9KjCF1Ovzvnjr-1" edge="1">
          <mxGeometry width="160" relative="1" as="geometry">
            <mxPoint x="600" y="340" as="sourcePoint" />
            <mxPoint x="600" y="235" as="targetPoint" />
          </mxGeometry>
        </mxCell>
        <mxCell id="bi7nDaM9KjCF1Ovzvnjr-28" value="ValueDouble" style="swimlane;fontStyle=1;align=center;verticalAlign=top;childLayout=stackLayout;horizontal=1;startSize=26;horizontalStack=0;resizeParent=1;resizeParentMax=0;resizeLast=0;collapsible=1;marginBottom=0;whiteSpace=wrap;html=1;" parent="WIyWlLk6GJQsqaUBKTNV-1" vertex="1">
          <mxGeometry x="640" y="330" width="160" height="60" as="geometry" />
        </mxCell>
        <mxCell id="bi7nDaM9KjCF1Ovzvnjr-29" value="+ real_: double" style="text;strokeColor=none;fillColor=none;align=left;verticalAlign=top;spacingLeft=4;spacingRight=4;overflow=hidden;rotatable=0;points=[[0,0.5],[1,0.5]];portConstraint=eastwest;whiteSpace=wrap;html=1;" parent="bi7nDaM9KjCF1Ovzvnjr-28" vertex="1">
          <mxGeometry y="26" width="160" height="26" as="geometry" />
        </mxCell>
        <mxCell id="bi7nDaM9KjCF1Ovzvnjr-30" value="" style="line;strokeWidth=1;fillColor=none;align=left;verticalAlign=middle;spacingTop=-1;spacingLeft=3;spacingRight=3;rotatable=0;labelPosition=right;points=[];portConstraint=eastwest;strokeColor=inherit;" parent="bi7nDaM9KjCF1Ovzvnjr-28" vertex="1">
          <mxGeometry y="52" width="160" height="8" as="geometry" />
        </mxCell>
        <mxCell id="bi7nDaM9KjCF1Ovzvnjr-32" value="" style="endArrow=block;endSize=16;endFill=0;html=1;rounded=0;edgeStyle=elbowEdgeStyle;elbow=vertical;exitX=0.5;exitY=0;exitDx=0;exitDy=0;" parent="WIyWlLk6GJQsqaUBKTNV-1" source="bi7nDaM9KjCF1Ovzvnjr-28" target="bi7nDaM9KjCF1Ovzvnjr-6" edge="1">
          <mxGeometry width="160" relative="1" as="geometry">
            <mxPoint x="475" y="340" as="sourcePoint" />
            <mxPoint x="610" y="235" as="targetPoint" />
          </mxGeometry>
        </mxCell>
        <mxCell id="bi7nDaM9KjCF1Ovzvnjr-33" value="Cell" style="swimlane;fontStyle=1;align=center;verticalAlign=top;childLayout=stackLayout;horizontal=1;startSize=26;horizontalStack=0;resizeParent=1;resizeParentMax=0;resizeLast=0;collapsible=1;marginBottom=0;whiteSpace=wrap;html=1;" parent="WIyWlLk6GJQsqaUBKTNV-1" vertex="1">
          <mxGeometry x="40" y="459" width="298" height="60" as="geometry" />
        </mxCell>
        <mxCell id="bi7nDaM9KjCF1Ovzvnjr-34" value="+ bounds_: std::unordered_map&amp;lt;std::string, Bound*&amp;gt;*" style="text;strokeColor=none;fillColor=none;align=left;verticalAlign=top;spacingLeft=4;spacingRight=4;overflow=hidden;rotatable=0;points=[[0,0.5],[1,0.5]];portConstraint=eastwest;whiteSpace=wrap;html=1;" parent="bi7nDaM9KjCF1Ovzvnjr-33" vertex="1">
          <mxGeometry y="26" width="298" height="26" as="geometry" />
        </mxCell>
        <mxCell id="bi7nDaM9KjCF1Ovzvnjr-35" value="" style="line;strokeWidth=1;fillColor=none;align=left;verticalAlign=middle;spacingTop=-1;spacingLeft=3;spacingRight=3;rotatable=0;labelPosition=right;points=[];portConstraint=eastwest;strokeColor=inherit;" parent="bi7nDaM9KjCF1Ovzvnjr-33" vertex="1">
          <mxGeometry y="52" width="298" height="8" as="geometry" />
        </mxCell>
        <mxCell id="bi7nDaM9KjCF1Ovzvnjr-36" value="" style="endArrow=block;endSize=16;endFill=0;html=1;rounded=0;edgeStyle=elbowEdgeStyle;elbow=horizontal;" parent="WIyWlLk6GJQsqaUBKTNV-1" source="bi7nDaM9KjCF1Ovzvnjr-33" target="bi7nDaM9KjCF1Ovzvnjr-20" edge="1">
          <mxGeometry width="160" relative="1" as="geometry">
            <mxPoint x="162" y="340" as="sourcePoint" />
            <mxPoint x="162" y="226" as="targetPoint" />
          </mxGeometry>
        </mxCell>
        <mxCell id="bi7nDaM9KjCF1Ovzvnjr-37" value="Bound" style="swimlane;fontStyle=1;align=center;verticalAlign=top;childLayout=stackLayout;horizontal=1;startSize=26;horizontalStack=0;resizeParent=1;resizeParentMax=0;resizeLast=0;collapsible=1;marginBottom=0;whiteSpace=wrap;html=1;" parent="WIyWlLk6GJQsqaUBKTNV-1" vertex="1">
          <mxGeometry x="398" y="459" width="158" height="86" as="geometry" />
        </mxCell>
        <mxCell id="bi7nDaM9KjCF1Ovzvnjr-38" value="+ cellFrom_: Cell*" style="text;strokeColor=none;fillColor=none;align=left;verticalAlign=top;spacingLeft=4;spacingRight=4;overflow=hidden;rotatable=0;points=[[0,0.5],[1,0.5]];portConstraint=eastwest;whiteSpace=wrap;html=1;" parent="bi7nDaM9KjCF1Ovzvnjr-37" vertex="1">
          <mxGeometry y="26" width="158" height="26" as="geometry" />
        </mxCell>
        <mxCell id="bi7nDaM9KjCF1Ovzvnjr-41" value="+ cellTo_: Cell*" style="text;strokeColor=none;fillColor=none;align=left;verticalAlign=top;spacingLeft=4;spacingRight=4;overflow=hidden;rotatable=0;points=[[0,0.5],[1,0.5]];portConstraint=eastwest;whiteSpace=wrap;html=1;" parent="bi7nDaM9KjCF1Ovzvnjr-37" vertex="1">
          <mxGeometry y="52" width="158" height="26" as="geometry" />
        </mxCell>
        <mxCell id="bi7nDaM9KjCF1Ovzvnjr-39" value="" style="line;strokeWidth=1;fillColor=none;align=left;verticalAlign=middle;spacingTop=-1;spacingLeft=3;spacingRight=3;rotatable=0;labelPosition=right;points=[];portConstraint=eastwest;strokeColor=inherit;" parent="bi7nDaM9KjCF1Ovzvnjr-37" vertex="1">
          <mxGeometry y="78" width="158" height="8" as="geometry" />
        </mxCell>
        <mxCell id="bi7nDaM9KjCF1Ovzvnjr-40" value="" style="endArrow=block;endSize=16;endFill=0;html=1;rounded=0;edgeStyle=elbowEdgeStyle;elbow=vertical;" parent="WIyWlLk6GJQsqaUBKTNV-1" source="bi7nDaM9KjCF1Ovzvnjr-37" target="bi7nDaM9KjCF1Ovzvnjr-20" edge="1">
          <mxGeometry width="160" relative="1" as="geometry">
            <mxPoint x="329" y="500" as="sourcePoint" />
            <mxPoint x="250" y="400" as="targetPoint" />
          </mxGeometry>
        </mxCell>
        <mxCell id="bi7nDaM9KjCF1Ovzvnjr-50" value="" style="endArrow=none;html=1;edgeStyle=orthogonalEdgeStyle;rounded=0;" parent="WIyWlLk6GJQsqaUBKTNV-1" source="bi7nDaM9KjCF1Ovzvnjr-33" target="bi7nDaM9KjCF1Ovzvnjr-37" edge="1">
          <mxGeometry relative="1" as="geometry">
            <mxPoint x="390" y="510" as="sourcePoint" />
            <mxPoint x="550" y="510" as="targetPoint" />
            <Array as="points">
              <mxPoint x="330" y="489" />
              <mxPoint x="330" y="489" />
            </Array>
          </mxGeometry>
        </mxCell>
        <mxCell id="bi7nDaM9KjCF1Ovzvnjr-51" value="1..2" style="edgeLabel;resizable=0;html=1;align=left;verticalAlign=bottom;spacingBottom=2;spacingLeft=2;spacing=0;" parent="bi7nDaM9KjCF1Ovzvnjr-50" connectable="0" vertex="1">
          <mxGeometry x="-1" relative="1" as="geometry" />
        </mxCell>
        <mxCell id="bi7nDaM9KjCF1Ovzvnjr-52" value="1..*" style="edgeLabel;resizable=0;html=1;align=right;verticalAlign=bottom;spacingBottom=3;spacingRight=5;spacing=0;" parent="bi7nDaM9KjCF1Ovzvnjr-50" connectable="0" vertex="1">
          <mxGeometry x="1" relative="1" as="geometry">
            <mxPoint y="1" as="offset" />
          </mxGeometry>
        </mxCell>
        <mxCell id="bi7nDaM9KjCF1Ovzvnjr-55" value="" style="endArrow=diamondThin;endFill=1;endSize=24;html=1;rounded=0;edgeStyle=orthogonalEdgeStyle;movable=1;resizable=1;rotatable=1;deletable=1;editable=1;locked=0;connectable=1;" parent="WIyWlLk6GJQsqaUBKTNV-1" source="bi7nDaM9KjCF1Ovzvnjr-1" target="bi7nDaM9KjCF1Ovzvnjr-12" edge="1">
          <mxGeometry width="160" relative="1" as="geometry">
            <mxPoint x="530" y="183" as="sourcePoint" />
            <mxPoint x="242" y="183" as="targetPoint" />
            <Array as="points">
              <mxPoint x="270" y="280" />
              <mxPoint x="270" y="340" />
            </Array>
          </mxGeometry>
        </mxCell>
        <mxCell id="bi7nDaM9KjCF1Ovzvnjr-56" value="0..*" style="edgeLabel;html=1;align=left;verticalAlign=bottom;resizable=0;points=[];spacingRight=0;spacingLeft=3;spacing=0;spacingBottom=5;" parent="bi7nDaM9KjCF1Ovzvnjr-55" vertex="1" connectable="0">
          <mxGeometry x="-0.9231" y="1" relative="1" as="geometry">
            <mxPoint x="-6" y="4" as="offset" />
          </mxGeometry>
        </mxCell>
        <mxCell id="bi7nDaM9KjCF1Ovzvnjr-60" value="" style="endArrow=open;endSize=12;dashed=1;html=1;rounded=0;edgeStyle=orthogonalEdgeStyle;" parent="WIyWlLk6GJQsqaUBKTNV-1" edge="1">
          <mxGeometry width="160" relative="1" as="geometry">
            <mxPoint x="232" y="359.5000000000001" as="sourcePoint" />
            <mxPoint x="320" y="359.5000000000001" as="targetPoint" />
            <Array as="points">
              <mxPoint x="260" y="359.5" />
              <mxPoint x="260" y="359.5" />
            </Array>
          </mxGeometry>
        </mxCell>
        <mxCell id="bi7nDaM9KjCF1Ovzvnjr-61" value="" style="endArrow=diamondThin;endFill=1;endSize=24;html=1;rounded=0;edgeStyle=orthogonalEdgeStyle;" parent="WIyWlLk6GJQsqaUBKTNV-1" edge="1">
          <mxGeometry width="160" relative="1" as="geometry">
            <mxPoint x="519.9999999999998" y="209.0344827586207" as="sourcePoint" />
            <mxPoint x="232" y="209.0344827586207" as="targetPoint" />
            <Array as="points">
              <mxPoint x="370" y="209" />
              <mxPoint x="370" y="209" />
            </Array>
          </mxGeometry>
        </mxCell>
        <mxCell id="bi7nDaM9KjCF1Ovzvnjr-62" value="1" style="edgeLabel;html=1;align=right;verticalAlign=bottom;resizable=0;points=[];spacingRight=5;spacingLeft=0;spacing=0;spacingBottom=2;" parent="bi7nDaM9KjCF1Ovzvnjr-61" vertex="1" connectable="0">
          <mxGeometry x="-0.9231" y="1" relative="1" as="geometry">
            <mxPoint x="11" y="-1" as="offset" />
          </mxGeometry>
        </mxCell>
      </root>
    </mxGraphModel>
  </diagram>
</mxfile>
